<?xml version="1.0" encoding="UTF-8"?>
<svg width="113px" height="208px" viewBox="0 0 113 208" version="1.1" xmlns="http://www.w3.org/2000/svg" xmlns:xlink="http://www.w3.org/1999/xlink">
    <!-- Generator: Sketch 53.2 (72643) - https://sketchapp.com -->
    <title>Group 10</title>
    <desc>Created with Sketch.</desc>
    <defs>
        <polygon id="path-1" points="4.83465125e-07 0.0973457363 112.895374 0.0973457363 112.895374 185.445766 4.83465125e-07 185.445766"></polygon>
    </defs>
    <g id="-" stroke="none" stroke-width="1" fill="none" fill-rule="evenodd">
        <g id="login" transform="translate(-125.000000, -45.000000)">
            <g id="Group-10" transform="translate(125.000000, 45.000000)">
                <g id="Group-3" transform="translate(0.000000, 22.531336)">
                    <mask id="mask-2" fill="white">
                        <use xlink:href="#path-1"></use>
                    </mask>
                    <g id="Clip-2"></g>
                    <path d="M109.653699,74.7049488 L109.18495,73.050646 L110.018366,74.8134705 C109.963769,74.8160855 109.818577,74.794294 109.653699,74.7049488 M97.2825374,95.1182584 C92.5699263,102.007645 87.4293507,109.207889 81.007601,114.881091 C76.7083806,118.675539 70.1079407,123.425435 63.06083,124.499648 C61.8639436,124.680953 60.3083719,124.716146 59.6860562,123.849498 C59.6005721,123.730407 59.5433652,123.570022 59.4823517,123.41552 C63.0812766,123.598351 66.6937963,122.296852 69.6482189,119.662258 C77.4464152,112.706516 84.2057511,104.555509 90.7433286,96.6734097 C93.9361496,92.8212149 96.2566192,88.9634632 98.4982391,85.2325381 C100.159524,82.4716622 101.864095,79.6405087 103.929091,76.8040163 C105.478355,76.2216381 107.037733,75.6747801 108.6156,75.200052 C105.879021,82.287306 101.693888,88.671239 97.2825374,95.1182584 M30.2131765,141.714072 C26.9045278,140.589739 23.7891428,138.675463 20.776317,136.824601 L9.45282522,129.868641 C16.5474633,132.968375 23.884959,135.541843 31.3500283,137.544375 C36.9193295,139.038728 43.4066606,140.430552 49.9502198,139.927495 C49.6185066,140.163715 49.274395,140.395576 48.8802545,140.605538 C43.5990543,143.431025 34.4497521,143.156125 30.2131765,141.714072 M34.2159215,120.202797 C38.7999802,121.1881 43.2231852,123.501051 46.6706096,126.716607 C50.6923873,130.468343 52.7926212,134.028205 52.4200148,136.364255 C43.4142737,127.334832 30.9575192,121.604427 18.2487713,120.620649 C23.2799359,119.438786 28.7499407,119.028016 34.2159215,120.202797 M31.801267,127.539782 C22.3194903,124.334359 14.1666327,123.402118 7.00238922,124.650009 C9.4842564,123.464769 12.2749975,122.329975 15.2718358,121.424538 C28.9101419,121.679826 42.5445326,127.624769 52.0965673,137.396301 C51.9253815,137.786696 51.7052545,138.159222 51.4331409,138.512463 C49.1625913,137.262828 46.9341313,135.850956 44.7796269,134.463599 C40.7022737,131.838594 36.4841871,129.122608 31.801267,127.539782 M31.4988098,128.442168 C36.0687299,129.987405 40.2357001,132.669395 44.2659609,135.264764 C46.2117578,136.517123 48.2107376,137.803585 50.2605076,138.968232 C43.7284768,139.548322 37.1947059,138.127189 31.5944085,136.624228 C22.0934903,134.075601 12.798343,130.595715 3.95269432,126.277944 C11.6937925,124.086154 20.7208502,124.798191 31.4988098,128.442168 M95.7159811,80.4970242 C82.0665817,91.3463652 69.8406125,104.266881 59.8128685,118.477018 C60.1374037,117.381994 60.5791804,116.235434 61.1541861,115.113498 C61.5627915,114.318216 61.9834691,113.531325 62.4182853,112.749881 C68.6687405,101.516138 77.6453344,91.8463715 88.5089956,84.6726051 C90.8483892,83.1276958 93.2654364,81.7659441 95.7159811,80.4970242 M59.3042054,120.881929 C70.3525384,104.795325 84.2251101,90.2938351 99.8266144,78.5113815 C100.652417,78.1437586 101.47996,77.7838718 102.315225,77.4477377 C100.604672,79.9074548 99.1220774,82.3510462 97.6860312,84.7414663 C95.4595288,88.4414475 93.1599407,92.2690179 90.0112756,96.0647728 C83.4972987,103.91996 76.7617809,112.043291 69.0162237,118.950765 C66.1756712,121.483375 62.6958368,122.7037 59.2549378,122.451027 C59.2128483,121.990355 59.238189,121.454937 59.3042054,120.881929 M28.612035,23.1036245 C30.2628791,27.76581 32.1292824,32.400756 34.6395355,36.6991321 C37.354472,41.3491143 41.0174556,45.9484312 45.8370851,50.7599975 C49.1493228,54.0666418 52.7033305,57.1481798 56.4233036,60.0045025 C55.6647136,59.7649048 54.9265702,59.4523055 54.2580321,59.1434108 C40.3439147,52.7151321 30.6773575,38.3106146 28.612035,23.1036245 M51.0952285,31.3981284 C54.6742506,36.9798068 57.2000562,43.4315114 58.7271332,50.7963893 C52.8048021,40.5574286 46.9605596,30.1726827 41.2732554,19.7805276 C44.9611448,23.2980048 48.3395076,27.1013867 51.0952285,31.3981284 M68.7955528,44.6336402 C69.3442391,43.3574202 69.8582314,42.158778 70.2857607,41.0808608 C72.4870312,35.5556224 75.0279542,30.2061326 77.8952612,25.0526575 C81.7473757,18.1294936 86.1915711,11.5665433 91.1849965,5.42286181 C89.9779956,9.62502839 87.7654142,13.5664595 85.6021005,17.4020928 L85.1604325,18.1840813 C77.2737068,32.1484103 70.3067511,46.7915449 64.4121534,61.72625 C64.3050264,61.3279011 64.2158445,60.8715868 64.1832169,60.2880101 C63.9400331,55.9416926 66.6320216,49.6715114 68.7955528,44.6336402 M68.4233815,60.5934181 C67.1440562,62.5415795 65.778703,63.2048042 65.2175095,63.0528084 C65.1387684,63.0315617 65.0568733,62.9544197 64.9757396,62.8793479 C70.9187347,47.7046093 77.97596,32.8260174 85.9877578,18.652272 L86.428447,17.871482 C88.298548,14.5656004 90.1972526,11.1773469 91.4864749,7.58904725 C86.8433603,26.4717209 79.1192285,44.2865014 68.4233815,60.5934181 M28.8926318,9.37867533 C32.3605028,12.0691646 35.8177155,14.8346167 39.0946067,17.7778875 C45.6350119,29.7805444 52.3952179,41.7996539 59.2490649,53.5995407 C59.4373257,54.7236559 59.6089465,55.8638969 59.7528339,57.029525 C57.3970177,52.5226041 54.2707569,48.1854391 51.1948512,43.9516748 C50.0632198,42.3930368 48.9504037,40.8617471 47.9094768,39.3608566 C45.6836269,36.1531457 43.7242352,32.6840457 41.8306423,29.32946 C40.518472,27.0070294 39.1616019,24.6047329 37.7240331,22.3013699 C35.0011573,17.9391447 31.8897963,13.7744595 28.8346635,9.73463971 C28.8555451,9.61620283 28.870445,9.49711221 28.8926318,9.37867533 M28.6228021,11.0330871 C31.4886953,14.8303673 34.3784065,18.736932 36.9170456,22.8050808 C38.3447174,25.0915554 39.6964758,27.4840457 41.0026645,29.7980865 C42.9089821,33.1718487 44.8790321,36.6601253 47.1308753,39.9049907 C48.1754999,41.4104574 49.2900562,42.9463233 50.4265817,44.5119346 C54.0079965,49.4415019 57.6829436,54.5098812 60.0573575,59.7907277 C60.0709523,59.941525 60.0933565,60.0839325 60.1064075,60.2351656 C59.6080764,60.3896675 59.0798368,60.4340132 58.5406125,60.4094977 C54.2872882,57.2640017 50.2451727,53.8173469 46.5089946,50.0864218 C41.7466808,45.3322762 38.1335086,40.7965905 35.4593565,36.2181934 C32.3371197,30.8731709 30.2049109,24.964184 28.2466067,19.134954 C28.1191419,16.4262688 28.2360572,13.7127895 28.6228021,11.0330871 M112.139047,71.8761924 C111.325425,71.0170619 110.157142,70.7956601 108.665846,71.2191782 C100.873741,73.4339587 93.3874633,76.889766 86.4163748,81.4928964 C75.4281852,88.7471824 66.2669195,98.4350357 59.7764345,109.706043 C60.1189147,107.389714 60.4702044,105.08123 60.8244306,102.789852 C61.726473,96.9499441 62.6587501,90.9105349 63.3258743,84.9351929 C64.0499879,78.4531981 64.342113,72.400932 64.2293305,66.7289278 L64.2298743,66.7291457 C66.699343,67.3954213 69.5222766,65.8459357 71.5974961,62.6851855 C73.9627742,59.0828304 76.184165,55.4113961 78.2658012,51.6697932 C86.7081736,36.4966889 92.8120225,20.2157041 96.4545596,3.12015254 C96.5571188,2.63409282 96.4672843,2.12754908 96.2038714,1.70729974 C95.5975432,0.743243164 94.641883,0.173721949 93.5143844,0.104315977 C91.6020851,-0.0135761131 89.5650398,1.38347784 88.394473,2.81932069 C79.3677415,13.8848335 72.0897367,26.2855124 66.7563324,39.6700782 C66.3404402,40.7194485 65.83765,41.8861662 65.3052776,43.1295899 C64.3730004,45.3003516 63.3571967,47.6857597 62.4848454,50.1011311 C60.8659763,42.2366827 58.1420129,35.3445716 54.2921823,29.3402468 C47.7316568,19.1095669 37.7034778,11.3692212 28.8547838,4.54074133 C28.3509061,4.15198072 27.6859571,4.04149775 27.0831091,4.24666485 C26.480805,4.45128717 26.019343,4.944756 25.8582718,5.56243646 C20.0655808,27.5075805 32.0913257,53.0952851 52.6663526,62.6001986 C54.8291226,63.5995575 57.5823421,64.6152599 60.358292,64.0889949 C60.6443267,70.3481714 60.3717781,77.1451625 59.5504345,84.5124375 C59.0838608,88.6874737 58.4741611,92.8922552 57.8445586,97.0636958 C57.8098647,96.9770745 57.7756058,96.8932861 57.740368,96.8020886 C56.2874643,93.0219147 55.6040264,88.9722887 53.7989628,85.3234087 C50.7909224,79.2412882 44.9733257,74.9280939 38.6990524,72.3673731 C32.4246703,69.8066523 25.6456491,68.8015187 18.9418887,67.8174139 C13.3261476,66.9926051 7.71029779,66.1675784 2.0940129,65.3433144 C0.867652936,68.3619839 2.62442772,71.7466418 4.65418614,74.2942877 C9.49567603,80.3699797 16.1181938,84.7767686 22.9870495,88.3945957 C31.3833084,92.8155491 40.321293,96.2041295 49.53324,98.4693574 C51.7371207,99.0115302 54.2182266,99.8526827 56.4908425,99.9579357 C56.8482227,99.9742793 57.1464383,99.9786376 57.4055009,99.9714464 C57.2913045,100.713012 57.1817848,101.471138 57.0676972,102.207583 C55.7072381,111.018545 54.3324229,120.041431 53.8053796,129.122608 C52.3954354,127.044025 50.6423584,125.219748 49.261344,123.930998 C45.3188512,120.253898 40.2587569,117.607972 35.0127944,116.480153 C22.7630071,113.847302 10.7024595,118.316197 2.74177806,122.528932 C2.03267315,122.905925 0.549969586,123.688567 0.11906872,125.33764 C-0.218191145,126.619417 -0.000783060635,128.526719 2.93939211,130.332691 L18.7882131,140.069684 C21.9799465,142.030158 25.2810909,144.057531 28.9912756,145.319042 C33.7745798,146.946759 44.2459494,147.399914 50.6696568,143.963937 C51.8810081,143.316838 52.880498,142.55152 53.7114123,141.697946 C54.1481861,150.325315 55.6783084,158.871402 58.2916645,167.116004 C59.909011,172.219249 62.6980119,179.618558 68.193575,184.914114 C68.9500986,185.642822 70.1525317,185.619723 70.8802343,184.861487 C70.996497,184.740544 71.093727,184.608161 71.1714893,184.468259 C71.5815086,183.731488 71.4633969,182.782686 70.829009,182.170889 C67.0687954,178.547832 64.3182949,173.549077 61.9133199,165.96356 C60.9367781,162.88115 60.116522,159.755266 59.4523344,156.598548 C59.6271091,156.779744 59.8202641,156.95473 60.0414787,157.119365 C67.8801332,162.948595 76.9388397,138.459836 77.3109022,133.689238 C77.3268897,133.485378 77.3359167,133.261797 77.2160649,133.096291 C76.9458002,132.722893 76.3610062,132.967721 75.9904662,133.241531 C73.3420899,135.197429 60.6282304,145.145364 58.6305557,152.114835 C58.0045423,148.247495 57.5998522,144.344199 57.4448714,140.423252 C57.2722718,136.032588 57.4124614,131.61948 57.7339513,127.208006 C58.9062583,128.082608 60.7398166,128.702468 63.6310504,128.262388 C71.5904268,127.049364 78.8402631,121.869194 83.5189417,117.736106 C90.2688156,111.774929 95.568396,104.357533 100.418151,97.2714778 C103.035097,93.442273 105.695654,89.4508304 108.031567,85.2526952 C109.783665,82.1036036 111.353811,78.83869 112.582998,75.4421557 C113.257518,73.592383 112.713509,72.4814517 112.139047,71.8761924" id="Fill-1" fill="#7B7B7D" mask="url(#mask-2)"></path>
                </g>
                <path d="M56.8134526,26.4438713 C57.8688444,27.731314 58.8128675,29.757271 58.2961562,31.5792595 C57.8200118,33.267557 55.9707924,34.5216587 54.1807375,34.3752197 C52.3966644,34.2296524 50.7227635,32.7025031 50.3671235,30.8978389 L50.3674498,30.8971851 C50.1919137,30.0025345 50.538853,28.5123218 51.2673169,27.2029787 C51.5858704,26.6306246 51.9765306,26.0923742 52.4308145,25.6542558 C53.1750484,24.9313224 53.8935065,24.6441102 54.5631321,24.7999195 C55.4834459,25.0128226 56.294675,25.8112637 56.8134526,26.4438713 M49.7877674,22.9175686 C47.4576182,25.1732082 46.105751,28.9203679 46.6401899,31.6327577 C47.325803,35.134654 50.3676673,37.8837624 53.8713198,38.1687954 C56.8845807,38.4154753 59.8868569,36.71127 61.327906,34.1212396 C61.5905576,33.6493444 61.8016577,33.1477037 61.9512005,32.623182 C62.7316509,29.872875 61.9086759,26.6596073 59.7496038,24.0266477 C58.4508107,22.4437121 56.9949705,21.4563386 55.4205835,21.0901322 C53.4715239,20.6377404 51.4708039,21.2861469 49.7877674,22.9175686" id="Fill-4" fill="#7B7B7D"></path>
                <path d="M74.538215,21.2181683 C74.3433199,20.885085 74.2048705,20.4657073 74.1299359,19.9702772 C73.9242737,18.5989372 74.1854027,17.4884417 74.870907,16.8442845 C75.5936067,16.1635177 76.8359542,15.9509414 78.2795047,16.2613616 C79.1736077,16.4528 79.9468801,17.040844 80.2013748,17.7210661 C80.3223141,18.0460865 80.3636423,18.4678613 80.3209003,18.9420446 C80.1820158,20.4436979 79.1998185,21.8233186 77.9220158,22.2910734 C76.694677,22.7408503 75.1451958,22.2498875 74.538215,21.2181683 M79.2273344,25.8669519 C80.8735018,25.2637628 82.2536462,24.0166345 83.1267588,22.4476455 C83.6607627,21.4878382 84.0044393,20.4077419 84.1058021,19.2828639 C84.2005307,18.2305517 84.0837242,17.2570158 83.7600591,16.3878613 C83.0474739,14.480668 81.2526337,13.0062542 79.0764864,12.5387172 C76.3951563,11.9626586 73.9137242,12.5208482 72.2674479,14.0704427 C70.6533642,15.6007518 69.9761255,17.8948534 70.3735288,20.5403432 C70.3732025,20.5411059 70.3732025,20.5411059 70.3742901,20.5426313 C70.5226366,21.5206345 70.8224835,22.3982877 71.2641515,23.1509666 C72.7937299,25.7508031 76.2916183,26.9433437 79.2273344,25.8669519" id="Fill-6" fill="#7B7B7D"></path>
                <path d="M58.5669756,7.37230885 C59.3338312,6.9857274 60.0954664,6.48375987 60.4876493,5.7176792 C60.9951161,4.72638324 60.7569351,3.47315327 60.1255925,2.55605741 C59.4946849,1.63841676 58.530324,1.00570016 57.539861,0.498829544 C53.6616445,-1.48550571 52.1037888,4.62069439 54.3187628,7.02157444 C54.663092,7.39540786 55.0836608,7.70942357 55.5652431,7.87013599 C56.5540747,8.19896993 57.636656,7.84224285 58.5669756,7.37230885" id="Fill-8" fill="#7B7B7D"></path>
            </g>
        </g>
    </g>
</svg>